<svg xmlns="http://www.w3.org/2000/svg" width="24" height="24" viewBox="0 0 24 24">
  <g id="ic_back" transform="translate(24 24) rotate(180)">
    <g id="Arrow_-_Right_Square" data-name="Arrow - Right Square" transform="translate(0 24) rotate(-90)">
      <path id="Arrow_-_Right_Square-2" data-name="Arrow - Right Square" d="M6.8,24a6.6,6.6,0,0,1-4.931-1.981A7.25,7.25,0,0,1,0,16.9V7.1A7.25,7.25,0,0,1,1.868,1.981,6.6,6.6,0,0,1,6.8,0H17.2a6.6,6.6,0,0,1,4.93,1.981A7.252,7.252,0,0,1,24,7.1v9.8a7.251,7.251,0,0,1-1.871,5.117A6.6,6.6,0,0,1,17.2,24ZM3.153,3.243A5.5,5.5,0,0,0,1.8,7.1v9.8c0,3.22,1.962,5.3,5,5.3H17.2c3.036,0,5-2.08,5-5.3V7.1c0-3.218-1.962-5.3-5-5.3H6.8A4.848,4.848,0,0,0,3.153,3.243Zm8.311,14.384-.011-.01a.9.9,0,0,1-.1-.093l-4.484-4.5A.9.9,0,0,1,8.04,11.664l.1.087,2.96,2.974V7.1a.9.9,0,0,1,1.792-.122L12.9,7.1v7.627l2.96-2.972a.9.9,0,0,1,1.172-.09l.1.087a.9.9,0,0,1,.09,1.172l-.087.1-4.5,4.517a.9.9,0,0,1-1.175.089Z" transform="translate(0)" fill="#25272a"/>
    </g>
  </g>
</svg>
