<svg xmlns="http://www.w3.org/2000/svg" width="14" height="11.2" viewBox="0 0 14 11.2">
  <path id="ic_gallery" d="M10.15,9.8a.35.35,0,0,1-.35.35H8.75V8.4H7.7v1.75H3.5V2.8H1.4A1.4,1.4,0,0,0,0,4.2V9.8a1.4,1.4,0,0,0,1.4,1.4H9.8a1.4,1.4,0,0,0,1.4-1.4V8.4H10.15Zm-7.7.35H1.4a.35.35,0,0,1-.35-.35V8.75h1.4Zm0-2.45H1.05V6.3h1.4Zm0-2.45H1.05V4.2a.35.35,0,0,1,.35-.35H2.45ZM12.6,0h-7A1.4,1.4,0,0,0,4.2,1.4V6.3A1.4,1.4,0,0,0,5.6,7.7h7A1.4,1.4,0,0,0,14,6.3V1.4A1.4,1.4,0,0,0,12.6,0Zm.35,6.3a.35.35,0,0,1-.35.35L10.208,3.131a.35.35,0,0,0-.582,0L8.253,5.189l-.489-.671a.35.35,0,0,0-.566,0L5.6,6.65a.35.35,0,0,1-.35-.35V1.4a.35.35,0,0,1,.35-.35h7a.35.35,0,0,1,.35.35ZM6.65,1.75a.7.7,0,1,0,.7.7A.7.7,0,0,0,6.65,1.75Z" fill="#a1a1a1"/>
</svg>
