<svg xmlns="http://www.w3.org/2000/svg" width="14" height="14" viewBox="0 0 14 14">
  <path id="ic_questions" d="M23,25.333a.933.933,0,1,0,.933.933A.921.921,0,0,0,23,25.333Zm.992-6.067H22.475a2.029,2.029,0,0,0-2.042,2.042.7.7,0,0,0,1.4,0,.647.647,0,0,1,.642-.642h1.517a.647.647,0,0,1,.642.642.625.625,0,0,1-.321.554l-1.662.992a.719.719,0,0,0-.35.612v.467a.7.7,0,1,0,1.4,0v-.058l1.342-.817a2.081,2.081,0,0,0,.992-1.75A2.029,2.029,0,0,0,23.992,19.267ZM23,16a7,7,0,1,0,7,7A7,7,0,0,0,23,16Zm0,12.6A5.6,5.6,0,1,1,28.6,23,5.606,5.606,0,0,1,23,28.6Z" transform="translate(-16 -16)" fill="#dd0539"/>
</svg>
