<svg xmlns="http://www.w3.org/2000/svg" width="13.18" height="12.415" viewBox="0 0 13.18 12.415">
  <path id="ic_social_snapchat" d="M218.2,115.5a3.124,3.124,0,0,1,2.9,1.87,6.233,6.233,0,0,1,.138,2.447c-.008.132-.016.261-.023.383l0,.053.035.039a.627.627,0,0,0,.443.166h.01a1.73,1.73,0,0,0,.655-.18.32.32,0,0,1,.132-.025.441.441,0,0,1,.166.031l.008,0c.125.044.214.127.215.2,0,.042-.031.2-.475.371-.043.017-.1.035-.167.056-.289.092-.726.23-.873.577a.809.809,0,0,0,.067.685,3.983,3.983,0,0,0,2.736,2.289.083.083,0,0,1-.008.03c-.031.074-.232.33-1.477.523-.195.03-.243.248-.3.5-.02.091-.04.183-.068.278-.009.029-.01.03-.041.03h-.015a1.373,1.373,0,0,1-.236-.031,3.655,3.655,0,0,0-.728-.077,3.22,3.22,0,0,0-.529.045,2.525,2.525,0,0,0-1.02.515,2.617,2.617,0,0,1-1.592.634l-.09,0h-.016l-.052,0a2.616,2.616,0,0,1-1.592-.634,2.526,2.526,0,0,0-1.02-.515,3.229,3.229,0,0,0-.529-.045,3.587,3.587,0,0,0-.728.082,1.486,1.486,0,0,1-.236.035c-.045,0-.046,0-.055-.035-.028-.095-.048-.189-.068-.28-.056-.254-.1-.474-.3-.5-1.246-.192-1.446-.449-1.477-.523a.091.091,0,0,1-.008-.03,3.982,3.982,0,0,0,2.736-2.289.808.808,0,0,0,.067-.685c-.147-.346-.584-.485-.873-.577-.066-.021-.124-.039-.167-.056-.375-.148-.491-.3-.474-.388s.2-.211.359-.211a.217.217,0,0,1,.09.016,1.675,1.675,0,0,0,.7.181.642.642,0,0,0,.482-.167l.035-.039,0-.052c-.007-.122-.015-.251-.023-.383a6.236,6.236,0,0,1,.138-2.446,3.12,3.12,0,0,1,2.9-1.869l.222,0h.028m0-.3h-.032l-.22,0a3.7,3.7,0,0,0-1.461.309,3.255,3.255,0,0,0-.932.618,3.488,3.488,0,0,0-.779,1.119,6.372,6.372,0,0,0-.163,2.586h0c.006.093.012.19.018.284a.5.5,0,0,1-.21.04,1.387,1.387,0,0,1-.569-.153.509.509,0,0,0-.217-.045.768.768,0,0,0-.383.107.53.53,0,0,0-.27.347.478.478,0,0,0,.182.45,1.559,1.559,0,0,0,.476.273c.054.021.119.042.187.063.237.075.595.189.688.409a.531.531,0,0,1-.06.435l-.007.015a4.22,4.22,0,0,1-.643,1,3.618,3.618,0,0,1-.776.687,2.855,2.855,0,0,1-1.09.426.3.3,0,0,0-.25.312.4.4,0,0,0,.031.13h0a.8.8,0,0,0,.433.371,4.945,4.945,0,0,0,1.25.326,1.534,1.534,0,0,1,.076.276c.021.1.043.2.074.3a.328.328,0,0,0,.343.25,1.647,1.647,0,0,0,.294-.041,3.312,3.312,0,0,1,.67-.076,2.936,2.936,0,0,1,.48.041,2.278,2.278,0,0,1,.9.464,2.9,2.9,0,0,0,1.765.689l.065,0,.093,0a2.9,2.9,0,0,0,1.765-.689h0a2.28,2.28,0,0,1,.9-.463,2.938,2.938,0,0,1,.479-.041,3.347,3.347,0,0,1,.67.071,1.588,1.588,0,0,0,.294.036h.015a.323.323,0,0,0,.328-.246c.03-.1.052-.2.073-.3a1.566,1.566,0,0,1,.076-.274,4.952,4.952,0,0,0,1.25-.326.8.8,0,0,0,.432-.37.384.384,0,0,0,.032-.132.3.3,0,0,0-.25-.312,3.7,3.7,0,0,1-2.51-2.111l-.007-.015a.531.531,0,0,1-.06-.435c.093-.22.451-.333.688-.408.069-.022.133-.042.187-.063a1.436,1.436,0,0,0,.51-.305.485.485,0,0,0,.155-.35.55.55,0,0,0-.41-.477.734.734,0,0,0-.278-.053.623.623,0,0,0-.259.053,1.456,1.456,0,0,1-.533.152.481.481,0,0,1-.176-.039c0-.08.01-.162.015-.248l0-.037a6.375,6.375,0,0,0-.163-2.587,3.493,3.493,0,0,0-.782-1.122,3.263,3.263,0,0,0-.935-.618,3.72,3.72,0,0,0-1.46-.307" transform="translate(-211.491 -114.997)" fill="#25272a" stroke="#25272a" stroke-width="0.4"/>
</svg>
